<mxfile host="app.diagrams.net" modified="2021-09-27T15:00:47.928Z" agent="5.0 (Macintosh; Intel Mac OS X 10_15_7) AppleWebKit/605.1.15 (KHTML, like Gecko) Version/15.0 Safari/605.1.15" etag="jDmGJmiS_GfTRSqRZ1P_" version="15.2.9" type="github">
  <diagram name="Page-1" id="58cdce13-f638-feb5-8d6f-7d28b1aa9fa0">
    <mxGraphModel dx="786" dy="539" grid="1" gridSize="10" guides="1" tooltips="1" connect="1" arrows="1" fold="1" page="1" pageScale="1" pageWidth="850" pageHeight="1100" background="none" math="0" shadow="0">
      <root>
        <mxCell id="0" />
        <mxCell id="1" parent="0" />
        <mxCell id="KyzOUZvv8sT9wCFtlqBP-63" style="edgeStyle=orthogonalEdgeStyle;rounded=0;orthogonalLoop=1;jettySize=auto;html=1;fontColor=#FF3333;strokeColor=#FF3333;" edge="1" parent="1" source="382b91b5511bd0f7-1" target="KyzOUZvv8sT9wCFtlqBP-62">
          <mxGeometry relative="1" as="geometry" />
        </mxCell>
        <mxCell id="382b91b5511bd0f7-1" value="" style="ellipse;html=1;shape=startState;fillColor=#000000;strokeColor=#ff0000;rounded=1;shadow=0;comic=0;labelBackgroundColor=none;fontFamily=Verdana;fontSize=12;fontColor=#000000;align=center;direction=south;" parent="1" vertex="1">
          <mxGeometry x="400" y="105" width="30" height="30" as="geometry" />
        </mxCell>
        <mxCell id="KyzOUZvv8sT9wCFtlqBP-56" style="edgeStyle=orthogonalEdgeStyle;rounded=0;orthogonalLoop=1;jettySize=auto;html=1;entryX=0.5;entryY=0;entryDx=0;entryDy=0;strokeColor=#FF3333;" edge="1" parent="1" source="382b91b5511bd0f7-6" target="KyzOUZvv8sT9wCFtlqBP-46">
          <mxGeometry relative="1" as="geometry" />
        </mxCell>
        <mxCell id="KyzOUZvv8sT9wCFtlqBP-61" value="the user selected a network and&lt;br&gt;provided&amp;nbsp;" style="edgeLabel;html=1;align=center;verticalAlign=middle;resizable=0;points=[];" vertex="1" connectable="0" parent="KyzOUZvv8sT9wCFtlqBP-56">
          <mxGeometry x="0.1849" relative="1" as="geometry">
            <mxPoint x="41" y="-60" as="offset" />
          </mxGeometry>
        </mxCell>
        <mxCell id="KyzOUZvv8sT9wCFtlqBP-57" style="edgeStyle=orthogonalEdgeStyle;rounded=0;orthogonalLoop=1;jettySize=auto;html=1;entryX=0.5;entryY=0;entryDx=0;entryDy=0;strokeColor=#FF3333;" edge="1" parent="1" source="382b91b5511bd0f7-6" target="KyzOUZvv8sT9wCFtlqBP-22">
          <mxGeometry relative="1" as="geometry" />
        </mxCell>
        <mxCell id="KyzOUZvv8sT9wCFtlqBP-59" value="TIMEOUT 10 seg" style="edgeLabel;html=1;align=center;verticalAlign=middle;resizable=0;points=[];" vertex="1" connectable="0" parent="KyzOUZvv8sT9wCFtlqBP-57">
          <mxGeometry x="0.1743" y="1" relative="1" as="geometry">
            <mxPoint x="-19" y="-47" as="offset" />
          </mxGeometry>
        </mxCell>
        <mxCell id="KyzOUZvv8sT9wCFtlqBP-66" style="edgeStyle=orthogonalEdgeStyle;rounded=0;orthogonalLoop=1;jettySize=auto;html=1;fontColor=#FF3333;strokeColor=#FF3333;" edge="1" parent="1" source="382b91b5511bd0f7-6" target="KyzOUZvv8sT9wCFtlqBP-65">
          <mxGeometry relative="1" as="geometry" />
        </mxCell>
        <mxCell id="382b91b5511bd0f7-6" value="DIsplay Networks available and wait for&amp;nbsp;&lt;br&gt;the user to select&amp;nbsp;" style="rounded=1;whiteSpace=wrap;html=1;arcSize=26;fillColor=#ffffc0;strokeColor=#ff0000;shadow=0;comic=0;labelBackgroundColor=none;fontFamily=Verdana;fontSize=12;fontColor=#000000;align=center;" parent="1" vertex="1">
          <mxGeometry x="290" y="215" width="250" height="100" as="geometry" />
        </mxCell>
        <mxCell id="KyzOUZvv8sT9wCFtlqBP-44" style="edgeStyle=orthogonalEdgeStyle;rounded=0;orthogonalLoop=1;jettySize=auto;html=1;entryX=0.5;entryY=0;entryDx=0;entryDy=0;strokeColor=#FF3333;" edge="1" parent="1" source="KyzOUZvv8sT9wCFtlqBP-7" target="KyzOUZvv8sT9wCFtlqBP-16">
          <mxGeometry relative="1" as="geometry" />
        </mxCell>
        <mxCell id="KyzOUZvv8sT9wCFtlqBP-7" value="Activate mode without internet&lt;br&gt;&lt;ul&gt;&lt;li&gt;Activate mode STATION&lt;/li&gt;&lt;li&gt;Disable date request&lt;/li&gt;&lt;li&gt;Disable Blynk app&amp;nbsp;&lt;/li&gt;&lt;/ul&gt;" style="rounded=1;whiteSpace=wrap;html=1;arcSize=26;fontColor=#000000;fillColor=#ffffc0;strokeColor=#ff0000;" vertex="1" parent="1">
          <mxGeometry x="325" y="425" width="180" height="150" as="geometry" />
        </mxCell>
        <mxCell id="KyzOUZvv8sT9wCFtlqBP-55" style="edgeStyle=orthogonalEdgeStyle;rounded=0;orthogonalLoop=1;jettySize=auto;html=1;strokeColor=#FF3333;entryX=0.407;entryY=0.521;entryDx=0;entryDy=0;entryPerimeter=0;" edge="1" parent="1" source="KyzOUZvv8sT9wCFtlqBP-11" target="KyzOUZvv8sT9wCFtlqBP-62">
          <mxGeometry relative="1" as="geometry">
            <mxPoint x="370" y="175" as="targetPoint" />
            <Array as="points">
              <mxPoint x="10" y="725" />
              <mxPoint x="10" y="175" />
            </Array>
          </mxGeometry>
        </mxCell>
        <mxCell id="KyzOUZvv8sT9wCFtlqBP-11" value="Reset micro" style="rounded=1;whiteSpace=wrap;html=1;arcSize=40;fontColor=#000000;fillColor=#ffffc0;strokeColor=#ff0000;" vertex="1" parent="1">
          <mxGeometry x="95.5" y="705" width="120" height="40" as="geometry" />
        </mxCell>
        <mxCell id="KyzOUZvv8sT9wCFtlqBP-16" value="" style="ellipse;html=1;shape=endState;fillColor=#000000;strokeColor=#ff0000;" vertex="1" parent="1">
          <mxGeometry x="400" y="965" width="30" height="30" as="geometry" />
        </mxCell>
        <mxCell id="KyzOUZvv8sT9wCFtlqBP-41" style="edgeStyle=orthogonalEdgeStyle;rounded=0;orthogonalLoop=1;jettySize=auto;html=1;entryX=0.5;entryY=0;entryDx=0;entryDy=0;strokeColor=#FF3333;" edge="1" parent="1" source="KyzOUZvv8sT9wCFtlqBP-22" target="KyzOUZvv8sT9wCFtlqBP-33">
          <mxGeometry relative="1" as="geometry" />
        </mxCell>
        <mxCell id="KyzOUZvv8sT9wCFtlqBP-72" style="edgeStyle=orthogonalEdgeStyle;rounded=0;orthogonalLoop=1;jettySize=auto;html=1;fontColor=#FF3333;strokeColor=#FF3333;" edge="1" parent="1" source="KyzOUZvv8sT9wCFtlqBP-22" target="KyzOUZvv8sT9wCFtlqBP-69">
          <mxGeometry relative="1" as="geometry">
            <Array as="points">
              <mxPoint x="800" y="531" />
              <mxPoint x="800" y="531" />
            </Array>
          </mxGeometry>
        </mxCell>
        <mxCell id="KyzOUZvv8sT9wCFtlqBP-22" value="Check for SSID and  Password in&#xa; EEMPROM memory" style="swimlane;fontStyle=1;align=center;verticalAlign=middle;childLayout=stackLayout;horizontal=1;startSize=30;horizontalStack=0;resizeParent=0;resizeLast=1;container=0;fontColor=#000000;collapsible=0;rounded=1;arcSize=30;strokeColor=#ff0000;fillColor=#ffffc0;swimlaneFillColor=#ffffc0;dropTarget=0;" vertex="1" parent="1">
          <mxGeometry x="565" y="424" width="225" height="200" as="geometry" />
        </mxCell>
        <mxCell id="KyzOUZvv8sT9wCFtlqBP-42" style="edgeStyle=orthogonalEdgeStyle;rounded=0;orthogonalLoop=1;jettySize=auto;html=1;strokeColor=#FF3333;" edge="1" parent="1" source="KyzOUZvv8sT9wCFtlqBP-25">
          <mxGeometry relative="1" as="geometry">
            <mxPoint x="677.5" y="625" as="targetPoint" />
          </mxGeometry>
        </mxCell>
        <mxCell id="KyzOUZvv8sT9wCFtlqBP-43" value="yes" style="edgeLabel;html=1;align=center;verticalAlign=middle;resizable=0;points=[];" vertex="1" connectable="0" parent="KyzOUZvv8sT9wCFtlqBP-42">
          <mxGeometry x="0.4481" y="2" relative="1" as="geometry">
            <mxPoint as="offset" />
          </mxGeometry>
        </mxCell>
        <mxCell id="KyzOUZvv8sT9wCFtlqBP-25" value="Is there Data" style="rhombus;whiteSpace=wrap;html=1;fillColor=#ffffc0;strokeColor=#ff0000;" vertex="1" parent="1">
          <mxGeometry x="637.5" y="491" width="80" height="80" as="geometry" />
        </mxCell>
        <mxCell id="KyzOUZvv8sT9wCFtlqBP-26" value="no" style="edgeStyle=orthogonalEdgeStyle;html=1;align=left;verticalAlign=bottom;endArrow=open;endSize=8;strokeColor=#ff0000;" edge="1" source="KyzOUZvv8sT9wCFtlqBP-25" parent="1">
          <mxGeometry x="-1" relative="1" as="geometry">
            <mxPoint x="790" y="531" as="targetPoint" />
          </mxGeometry>
        </mxCell>
        <mxCell id="KyzOUZvv8sT9wCFtlqBP-45" style="edgeStyle=orthogonalEdgeStyle;rounded=0;orthogonalLoop=1;jettySize=auto;html=1;entryX=1;entryY=0.5;entryDx=0;entryDy=0;strokeColor=#FF3333;exitX=0.5;exitY=1;exitDx=0;exitDy=0;" edge="1" parent="1" source="KyzOUZvv8sT9wCFtlqBP-33" target="KyzOUZvv8sT9wCFtlqBP-16">
          <mxGeometry relative="1" as="geometry" />
        </mxCell>
        <mxCell id="KyzOUZvv8sT9wCFtlqBP-70" style="edgeStyle=orthogonalEdgeStyle;rounded=0;orthogonalLoop=1;jettySize=auto;html=1;fontColor=#FF3333;strokeColor=#FF3333;" edge="1" parent="1" source="KyzOUZvv8sT9wCFtlqBP-33" target="KyzOUZvv8sT9wCFtlqBP-69">
          <mxGeometry relative="1" as="geometry" />
        </mxCell>
        <mxCell id="KyzOUZvv8sT9wCFtlqBP-33" value="Try to connect to network" style="swimlane;fontStyle=1;align=center;verticalAlign=middle;childLayout=stackLayout;horizontal=1;startSize=30;horizontalStack=0;resizeParent=0;resizeLast=1;container=0;fontColor=#000000;collapsible=0;rounded=1;arcSize=30;strokeColor=#ff0000;fillColor=#ffffc0;swimlaneFillColor=#ffffc0;dropTarget=0;" vertex="1" parent="1">
          <mxGeometry x="565" y="715" width="225" height="200" as="geometry" />
        </mxCell>
        <mxCell id="KyzOUZvv8sT9wCFtlqBP-35" style="edgeStyle=orthogonalEdgeStyle;rounded=0;orthogonalLoop=1;jettySize=auto;html=1;strokeColor=#FF3333;" edge="1" parent="1" source="KyzOUZvv8sT9wCFtlqBP-30">
          <mxGeometry relative="1" as="geometry">
            <mxPoint x="780" y="819.9999999999998" as="targetPoint" />
          </mxGeometry>
        </mxCell>
        <mxCell id="KyzOUZvv8sT9wCFtlqBP-36" value="no" style="edgeLabel;html=1;align=center;verticalAlign=middle;resizable=0;points=[];" vertex="1" connectable="0" parent="KyzOUZvv8sT9wCFtlqBP-35">
          <mxGeometry x="0.1078" y="-3" relative="1" as="geometry">
            <mxPoint as="offset" />
          </mxGeometry>
        </mxCell>
        <mxCell id="KyzOUZvv8sT9wCFtlqBP-37" style="edgeStyle=orthogonalEdgeStyle;rounded=0;orthogonalLoop=1;jettySize=auto;html=1;strokeColor=#FF3333;" edge="1" parent="1" source="KyzOUZvv8sT9wCFtlqBP-30">
          <mxGeometry relative="1" as="geometry">
            <mxPoint x="678.75" y="914.9999999999998" as="targetPoint" />
          </mxGeometry>
        </mxCell>
        <mxCell id="KyzOUZvv8sT9wCFtlqBP-38" value="yes" style="edgeLabel;html=1;align=center;verticalAlign=middle;resizable=0;points=[];" vertex="1" connectable="0" parent="KyzOUZvv8sT9wCFtlqBP-37">
          <mxGeometry x="-0.2147" y="2" relative="1" as="geometry">
            <mxPoint as="offset" />
          </mxGeometry>
        </mxCell>
        <mxCell id="KyzOUZvv8sT9wCFtlqBP-30" value="Connected?" style="rhombus;whiteSpace=wrap;html=1;fillColor=#ffffc0;strokeColor=#ff0000;" vertex="1" parent="1">
          <mxGeometry x="637.5" y="780" width="82.5" height="80" as="geometry" />
        </mxCell>
        <mxCell id="KyzOUZvv8sT9wCFtlqBP-52" style="edgeStyle=orthogonalEdgeStyle;rounded=0;orthogonalLoop=1;jettySize=auto;html=1;entryX=0;entryY=0.5;entryDx=0;entryDy=0;strokeColor=#FF3333;" edge="1" parent="1" source="KyzOUZvv8sT9wCFtlqBP-46" target="KyzOUZvv8sT9wCFtlqBP-16">
          <mxGeometry relative="1" as="geometry">
            <Array as="points">
              <mxPoint x="300" y="525" />
              <mxPoint x="300" y="980" />
            </Array>
          </mxGeometry>
        </mxCell>
        <mxCell id="KyzOUZvv8sT9wCFtlqBP-77" value="Clear memory and save current&lt;br&gt;SSID and pass" style="edgeLabel;html=1;align=center;verticalAlign=middle;resizable=0;points=[];fontColor=#000000;" vertex="1" connectable="0" parent="KyzOUZvv8sT9wCFtlqBP-52">
          <mxGeometry x="-0.1482" y="3" relative="1" as="geometry">
            <mxPoint x="-3" y="47" as="offset" />
          </mxGeometry>
        </mxCell>
        <mxCell id="KyzOUZvv8sT9wCFtlqBP-53" style="edgeStyle=orthogonalEdgeStyle;rounded=0;orthogonalLoop=1;jettySize=auto;html=1;exitX=1;exitY=0.5;exitDx=0;exitDy=0;strokeColor=#FF3333;" edge="1" parent="1" source="KyzOUZvv8sT9wCFtlqBP-46">
          <mxGeometry relative="1" as="geometry">
            <mxPoint x="250" y="525.1176470588236" as="targetPoint" />
          </mxGeometry>
        </mxCell>
        <mxCell id="KyzOUZvv8sT9wCFtlqBP-54" style="edgeStyle=orthogonalEdgeStyle;rounded=0;orthogonalLoop=1;jettySize=auto;html=1;entryX=0.5;entryY=0;entryDx=0;entryDy=0;strokeColor=#FF3333;" edge="1" parent="1" source="KyzOUZvv8sT9wCFtlqBP-46" target="KyzOUZvv8sT9wCFtlqBP-11">
          <mxGeometry relative="1" as="geometry" />
        </mxCell>
        <mxCell id="KyzOUZvv8sT9wCFtlqBP-46" value="Try to connect to network" style="swimlane;fontStyle=1;align=center;verticalAlign=middle;childLayout=stackLayout;horizontal=1;startSize=30;horizontalStack=0;resizeParent=0;resizeLast=1;container=0;fontColor=#000000;collapsible=0;rounded=1;arcSize=30;strokeColor=#ff0000;fillColor=#ffffc0;swimlaneFillColor=#ffffc0;dropTarget=0;" vertex="1" parent="1">
          <mxGeometry x="43" y="425" width="225" height="200" as="geometry" />
        </mxCell>
        <mxCell id="KyzOUZvv8sT9wCFtlqBP-73" style="edgeStyle=orthogonalEdgeStyle;rounded=0;orthogonalLoop=1;jettySize=auto;html=1;exitX=1;exitY=0.5;exitDx=0;exitDy=0;fontColor=#FF3333;strokeColor=#FF3333;" edge="1" parent="1" source="KyzOUZvv8sT9wCFtlqBP-51">
          <mxGeometry relative="1" as="geometry">
            <mxPoint x="250" y="526" as="targetPoint" />
          </mxGeometry>
        </mxCell>
        <mxCell id="KyzOUZvv8sT9wCFtlqBP-75" value="si" style="edgeLabel;html=1;align=center;verticalAlign=middle;resizable=0;points=[];fontColor=#000000;" vertex="1" connectable="0" parent="KyzOUZvv8sT9wCFtlqBP-73">
          <mxGeometry x="-0.2166" y="-1" relative="1" as="geometry">
            <mxPoint x="-2" y="-15" as="offset" />
          </mxGeometry>
        </mxCell>
        <mxCell id="KyzOUZvv8sT9wCFtlqBP-74" style="edgeStyle=orthogonalEdgeStyle;rounded=0;orthogonalLoop=1;jettySize=auto;html=1;exitX=0.5;exitY=1;exitDx=0;exitDy=0;fontColor=#FF3333;strokeColor=#FF3333;" edge="1" parent="1" source="KyzOUZvv8sT9wCFtlqBP-51">
          <mxGeometry relative="1" as="geometry">
            <mxPoint x="156" y="610" as="targetPoint" />
          </mxGeometry>
        </mxCell>
        <mxCell id="KyzOUZvv8sT9wCFtlqBP-76" value="no" style="edgeLabel;html=1;align=center;verticalAlign=middle;resizable=0;points=[];fontColor=#000000;" vertex="1" connectable="0" parent="KyzOUZvv8sT9wCFtlqBP-74">
          <mxGeometry x="-0.2088" y="2" relative="1" as="geometry">
            <mxPoint x="13" as="offset" />
          </mxGeometry>
        </mxCell>
        <mxCell id="KyzOUZvv8sT9wCFtlqBP-51" value="Connected?" style="rhombus;whiteSpace=wrap;html=1;fillColor=#ffffc0;strokeColor=#ff0000;" vertex="1" parent="1">
          <mxGeometry x="114.25" y="485" width="82.5" height="80" as="geometry" />
        </mxCell>
        <mxCell id="KyzOUZvv8sT9wCFtlqBP-64" style="edgeStyle=orthogonalEdgeStyle;rounded=0;orthogonalLoop=1;jettySize=auto;html=1;entryX=0.5;entryY=0;entryDx=0;entryDy=0;fontColor=#FF3333;strokeColor=#FF3333;" edge="1" parent="1" source="KyzOUZvv8sT9wCFtlqBP-62" target="382b91b5511bd0f7-6">
          <mxGeometry relative="1" as="geometry" />
        </mxCell>
        <mxCell id="KyzOUZvv8sT9wCFtlqBP-62" value="" style="shape=waypoint;sketch=0;size=6;pointerEvents=1;points=[];fillColor=none;resizable=0;rotatable=0;perimeter=centerPerimeter;snapToPoint=1;fontColor=#FF3333;strokeColor=#FF3333;" vertex="1" parent="1">
          <mxGeometry x="395" y="155" width="40" height="40" as="geometry" />
        </mxCell>
        <mxCell id="KyzOUZvv8sT9wCFtlqBP-68" style="edgeStyle=orthogonalEdgeStyle;rounded=0;orthogonalLoop=1;jettySize=auto;html=1;entryX=0.5;entryY=0;entryDx=0;entryDy=0;fontColor=#FF3333;strokeColor=#FF3333;" edge="1" parent="1" source="KyzOUZvv8sT9wCFtlqBP-65" target="KyzOUZvv8sT9wCFtlqBP-7">
          <mxGeometry relative="1" as="geometry" />
        </mxCell>
        <mxCell id="KyzOUZvv8sT9wCFtlqBP-65" value="" style="shape=waypoint;sketch=0;size=6;pointerEvents=1;points=[];fillColor=none;resizable=0;rotatable=0;perimeter=centerPerimeter;snapToPoint=1;fontColor=#FF3333;strokeColor=#FF3333;" vertex="1" parent="1">
          <mxGeometry x="395" y="345" width="40" height="40" as="geometry" />
        </mxCell>
        <mxCell id="KyzOUZvv8sT9wCFtlqBP-71" style="edgeStyle=orthogonalEdgeStyle;rounded=0;orthogonalLoop=1;jettySize=auto;html=1;fontColor=#FF3333;strokeColor=#FF3333;entryX=0.6;entryY=0.575;entryDx=0;entryDy=0;entryPerimeter=0;" edge="1" parent="1" source="KyzOUZvv8sT9wCFtlqBP-69" target="KyzOUZvv8sT9wCFtlqBP-65">
          <mxGeometry relative="1" as="geometry">
            <mxPoint x="810" y="365" as="targetPoint" />
            <Array as="points">
              <mxPoint x="820" y="365" />
            </Array>
          </mxGeometry>
        </mxCell>
        <mxCell id="KyzOUZvv8sT9wCFtlqBP-78" value="Clear memory" style="edgeLabel;html=1;align=center;verticalAlign=middle;resizable=0;points=[];fontColor=#000000;" vertex="1" connectable="0" parent="KyzOUZvv8sT9wCFtlqBP-71">
          <mxGeometry x="0.5342" relative="1" as="geometry">
            <mxPoint y="-5" as="offset" />
          </mxGeometry>
        </mxCell>
        <mxCell id="KyzOUZvv8sT9wCFtlqBP-69" value="" style="shape=waypoint;sketch=0;size=6;pointerEvents=1;points=[];fillColor=none;resizable=0;rotatable=0;perimeter=centerPerimeter;snapToPoint=1;fontColor=#FF3333;strokeColor=#FF3333;" vertex="1" parent="1">
          <mxGeometry x="800" y="511" width="40" height="40" as="geometry" />
        </mxCell>
      </root>
    </mxGraphModel>
  </diagram>
</mxfile>
